<?xml version="1.0" encoding="UTF-8" standalone="no"?>
<!DOCTYPE svg PUBLIC "-//W3C//DTD SVG 1.1//EN" "http://www.w3.org/Graphics/SVG/1.1/DTD/svg11.dtd">
<svg version="1.1" xmlns="http://www.w3.org/2000/svg" xmlns:xlink="http://www.w3.org/1999/xlink" preserveAspectRatio="xMidYMid meet" viewBox="0 0 640 640" width="640" height="640"><defs><path d="M195.58 454.4L233.22 289.41L215.04 280.9L143.42 401.22L195.58 454.4ZM237.89 230.4C225.54 230.4 215.49 240.45 215.49 252.8C215.49 265.15 225.54 275.2 237.89 275.2C250.24 275.2 260.29 265.15 260.29 252.8C260.29 240.45 250.24 230.4 237.89 230.4ZM203.71 237.82C174.27 226.94 119.87 208.45 114.62 219.01C107.46 233.54 120.19 256.19 114.62 271.04C109.06 285.89 105.79 304.58 136.19 297.02C155.01 292.35 187.78 283.52 209.98 277.44C204.16 270.78 200.51 262.27 200.51 252.8C200.51 247.49 201.66 242.43 203.71 237.82ZM51.2 51.2C26.43 51.2 6.4 71.23 6.4 96C6.4 140.8 6.4 499.2 6.4 544C6.4 568.77 26.43 588.8 51.2 588.8C104.96 588.8 535.04 588.8 588.8 588.8C613.57 588.8 633.6 568.77 633.6 544C633.6 499.2 633.6 140.8 633.6 96C633.6 71.23 613.57 51.2 588.8 51.2C481.28 51.2 104.96 51.2 51.2 51.2ZM379.71 245.31L379.71 275.2L603.71 275.2C603.71 436.48 603.71 526.08 603.71 544C603.71 552.26 597.06 558.91 588.8 558.91C565.9 558.91 451.4 558.91 245.31 558.91L245.31 352.83L215.42 430.46L215.42 558.91C116.89 558.91 62.15 558.91 51.2 558.91C42.94 558.91 36.29 552.26 36.29 544C36.29 526.08 36.29 436.48 36.29 275.2L96 275.2L96 245.31L36.29 245.31C36.29 155.72 36.29 105.95 36.29 96C36.29 87.74 42.94 81.09 51.2 81.09C62.15 81.09 116.92 81.09 215.49 81.09L215.49 215.49L245.38 215.49L245.38 81.09C451.43 81.09 565.91 81.09 588.8 81.09C597.06 81.09 603.71 87.81 603.71 96C603.71 105.95 603.71 155.72 603.71 245.31L379.71 245.31ZM272.13 238.02C274.11 242.56 275.2 247.55 275.2 252.8C275.2 262.27 271.55 270.85 265.73 277.44C287.94 283.52 320.7 292.35 339.52 297.02C369.92 304.51 366.66 285.89 361.09 271.1C355.52 256.26 368.26 233.73 361.09 219.26C355.9 208.77 301.57 227.14 272.13 238.02ZM282.05 454.4L336.77 401.02L261.57 280.32L242.56 288.9L282.05 454.4Z" id="ac4nRG8Ml"></path></defs><g><g><g><use xlink:href="#ac4nRG8Ml" opacity="1" fill="#ffffff" fill-opacity="1"></use><g><use xlink:href="#ac4nRG8Ml" opacity="1" fill-opacity="0" stroke="#000000" stroke-width="1" stroke-opacity="0"></use></g></g></g></g></svg>