<?xml version="1.0" encoding="utf-8"?>
<!-- Svg Vector Icons : http://www.onlinewebfonts.com/icon -->
<!DOCTYPE svg PUBLIC "-//W3C//DTD SVG 1.1//EN" "http://www.w3.org/Graphics/SVG/1.1/DTD/svg11.dtd">
<svg version="1.1" xmlns="http://www.w3.org/2000/svg" xmlns:xlink="http://www.w3.org/1999/xlink" x="0px" y="0px" viewBox="0 0 1000 1000" enable-background="new 0 0 1000 1000" xml:space="preserve">
<metadata> Svg Vector Icons : http://www.onlinewebfonts.com/icon </metadata>
<g><path d="M224.1,626.9l81.5,83.1l58.8-257.8L336,438.9L224.1,626.9z M406.7,395c0-19.3-15.7-35-35-35c-19.3,0-35,15.7-35,35c0,19.3,15.7,35,35,35C391,430,406.7,414.3,406.7,395z M313.3,395c0-8.3,1.8-16.2,5-23.4c-46-17-131-45.9-139.2-29.4c-11.2,22.7,8.7,58.1,0,81.3c-8.7,23.2-13.8,52.4,33.7,40.6c29.4-7.3,80.6-21.1,115.3-30.6C319,423.1,313.3,409.8,313.3,395z M920,80H80c-38.7,0-70,31.3-70,70v700c0,38.7,31.3,70,70,70h840c38.7,0,70-31.3,70-70V150C990,111.3,958.7,80,920,80z M943.3,383.3h-350V430h350v420c0,12.9-10.4,23.3-23.3,23.3H383.3v-322l-46.7,121.3v200.7H80c-12.9,0-23.3-10.4-23.3-23.3V430H150v-46.7H56.7V150c0-12.9,10.4-23.3,23.3-23.3h256.7v210h46.7v-210H920c12.9,0,23.3,10.5,23.3,23.3V383.3z M564.2,342.6c-8.1-16.4-93,12.3-139,29.3c3.1,7.1,4.8,14.9,4.8,23.1c0,14.8-5.7,28.2-14.8,38.5c34.7,9.5,85.9,23.3,115.3,30.6c47.5,11.7,42.4-17.4,33.7-40.5C555.5,400.4,575.4,365.2,564.2,342.6z M379,451.4L440.7,710l85.5-83.4L408.7,438L379,451.4z"/></g>
</svg>